<?xml version="1.0" encoding="UTF-8" standalone="no"?>
<!-- Generator: Adobe Illustrator 16.0.3, SVG Export Plug-In . SVG Version: 6.00 Build 0)  -->

<svg
   xmlns:dc="http://purl.org/dc/elements/1.1/"
   xmlns:cc="http://creativecommons.org/ns#"
   xmlns:rdf="http://www.w3.org/1999/02/22-rdf-syntax-ns#"
   xmlns:svg="http://www.w3.org/2000/svg"
   xmlns="http://www.w3.org/2000/svg"
   xmlns:sodipodi="http://sodipodi.sourceforge.net/DTD/sodipodi-0.dtd"
   xmlns:inkscape="http://www.inkscape.org/namespaces/inkscape"
   version="1.1"
   id="Layer_1"
   x="0px"
   y="0px"
   width="200.927"
   height="57.654999"
   viewBox="0 0 200.927 57.654999"
   enable-background="new 0 0 260 60"
   xml:space="preserve"
   sodipodi:docname="ualg_branco.svg"
   inkscape:version="0.92.4 (5da689c313, 2019-01-14)"
   inkscape:export-filename="C:\Users\Pedro Cavalheiro\Desktop\g56.png"
   inkscape:export-xdpi="513"
   inkscape:export-ydpi="513"><metadata
   id="metadata65"><rdf:RDF><cc:Work
       rdf:about=""><dc:format>image/svg+xml</dc:format><dc:type
         rdf:resource="http://purl.org/dc/dcmitype/StillImage" /><dc:title></dc:title></cc:Work></rdf:RDF></metadata><defs
   id="defs63">
	
	
	
</defs><sodipodi:namedview
   pagecolor="#ffffff"
   bordercolor="#666666"
   borderopacity="1"
   objecttolerance="10"
   gridtolerance="10"
   guidetolerance="10"
   inkscape:pageopacity="0"
   inkscape:pageshadow="2"
   inkscape:window-width="1920"
   inkscape:window-height="1017"
   id="namedview61"
   showgrid="false"
   inkscape:zoom="2.6846154"
   inkscape:cx="19.158174"
   inkscape:cy="-44.166806"
   inkscape:window-x="1912"
   inkscape:window-y="-8"
   inkscape:window-maximized="1"
   inkscape:current-layer="Layer_1"
   fit-margin-top="0"
   fit-margin-left="0"
   fit-margin-right="0"
   fit-margin-bottom="0" />
<path
   inkscape:connector-curvature="0"
   style="clip-rule:evenodd;fill:#26ace2;fill-opacity:1;fill-rule:evenodd"
   id="path2"
   d="m 23.078,43.522 c -3.216,0 -6.262,-0.73 -8.977,-2.036 1.514,0.39 3.095,0.621 4.732,0.621 10.386,0 18.834,-8.363 18.834,-18.645 0,-10.28 -8.449,-18.645 -18.834,-18.645 -2.82,0 -5.487,0.635 -7.893,1.739 3.409,-2.463 7.604,-3.92 12.138,-3.92 11.387,0 20.652,9.17 20.652,20.445 0,11.272 -9.265,20.441 -20.652,20.441 z m -8.747,-5.997 c -1.822,0 -3.562,-0.354 -5.167,-0.972 2.717,1.972 6.052,3.149 9.669,3.149 9.045,0 16.406,-7.285 16.406,-16.241 0,-8.956 -7.361,-16.242 -16.406,-16.242 -3.279,0 -6.329,0.967 -8.895,2.615 1.387,-0.445 2.861,-0.689 4.393,-0.689 7.904,0 14.332,6.365 14.332,14.189 -0.001,7.823 -6.428,14.191 -14.332,14.191 z M 6.38,32.081 c 2.11,1.879 4.894,3.038 7.951,3.038 6.563,0 11.904,-5.288 11.904,-11.784 0,-6.498 -5.341,-11.784 -11.904,-11.784 -3.612,0 -6.847,1.606 -9.032,4.13 1.454,-0.909 3.17,-1.44 5.013,-1.44 5.207,0 9.443,4.193 9.443,9.347 0,5.158 -4.236,9.349 -9.443,9.349 -1.405,0 -2.734,-0.312 -3.932,-0.856 z M 23.078,0 C 10.353,0 0,10.353 0,23.081 0,23.136 0.003,23.195 0.004,23.252 0.003,23.281 0,23.309 0,23.338 0,23.361 0.003,23.38 0.003,23.4 0.003,23.423 0,23.443 0,23.466 c 0,0.13 0.016,0.256 0.018,0.387 0.01,0.275 0.025,0.549 0.042,0.819 0.03,0.45 0.073,0.897 0.132,1.337 0.05,0.387 0.107,0.77 0.176,1.152 0.008,0.042 0.014,0.084 0.022,0.128 1.987,10.723 11.4,18.87 22.688,18.87 12.727,0 23.079,-10.353 23.079,-23.078 C 46.157,10.353 35.804,0 23.078,0 Z" /><g
   style="fill:#5a5b5e;fill-opacity:1"
   id="g12"
   transform="translate(0,-1.031)">
		<path
   inkscape:connector-curvature="0"
   style="clip-rule:evenodd;fill:#5a5b5e;fill-opacity:1;fill-rule:evenodd"
   id="path4"
   d="m 77.935,12.646 v 4.666 h -1.994 v 11.886 c 0,6.736 -4.251,9.407 -10.31,9.407 -6.056,0 -10.307,-2.67 -10.307,-9.407 V 17.312 h -2.032 v -4.666 h 10.045 v 4.666 h -2.032 v 11.886 c 0,2.672 0.979,4.74 4.363,4.74 3.274,0 4.292,-2.067 4.292,-4.74 V 17.312 h -2.032 v -4.666 z" />
		<path
   inkscape:connector-curvature="0"
   style="clip-rule:evenodd;fill:#5a5b5e;fill-opacity:1;fill-rule:evenodd"
   id="path6"
   d="m 93.395,12.646 6.472,20.916 h 2.03 v 4.666 H 91.253 v -4.666 h 2.106 l -0.828,-3.084 h -6.884 l -0.978,3.084 h 2.181 v 4.666 H 76.503 v -4.666 h 2.373 L 84.028,17.31 h -2.445 v -4.664 z m -4.138,5.304 -2.407,8.2 h 4.666 l -2.22,-8.201 h -0.039 z" />
		<polygon
   style="clip-rule:evenodd;fill:#5a5b5e;fill-opacity:1;fill-rule:evenodd"
   id="polygon8"
   points="112.544,38.228 102.839,38.228 102.839,33.563 104.87,33.563 104.87,16.559 102.839,16.559 102.839,11.894 110.513,11.894 110.513,33.563 112.544,33.563 " />
		<path
   inkscape:connector-curvature="0"
   style="clip-rule:evenodd;fill:#5a5b5e;fill-opacity:1;fill-rule:evenodd"
   id="path10"
   d="m 115.593,37.512 c -2.408,-1.617 -1.995,-4.928 1.542,-6.733 v -0.073 c -1.881,-0.941 -3.047,-2.972 -3.047,-5.269 0,-4.401 3.272,-6.395 8.125,-6.395 0.979,0 2.031,0.15 2.784,0.375 h 7.148 v 3.35 h -2.709 v 0.075 c 0.49,0.603 0.715,1.431 0.715,2.596 0,4.441 -3.349,6.358 -7.938,6.358 -0.602,0 -1.467,-0.111 -2.22,-0.337 -0.79,1.166 -0.752,2.105 0.452,2.18 l 6.02,0.265 c 3.799,0.148 6.057,2.032 6.057,5.229 0,4.85 -3.649,6.996 -11.437,6.996 -5.794,0 -8.276,-1.58 -8.276,-4.891 0,-1.617 0.827,-2.708 2.784,-3.648 z m 6.358,4.78 c 2.257,0 4.625,-0.488 4.625,-2.069 0,-0.79 -0.639,-1.392 -1.918,-1.505 l -6.207,-0.376 c -0.452,0.565 -0.828,0.905 -0.828,1.919 10e-4,1.883 2.258,2.031 4.328,2.031 z m 2.859,-16.855 c 0,-1.918 -1.13,-2.558 -2.597,-2.558 -1.541,0 -2.633,0.64 -2.633,2.558 0,1.918 1.129,2.523 2.633,2.523 1.467,-0.001 2.597,-0.643 2.597,-2.523 z" />
	</g><g
   style="fill:#5a5b5e;fill-opacity:1"
   id="g56"
   transform="translate(0,-1.031)">
		<path
   inkscape:connector-curvature="0"
   style="fill:#5a5b5e;fill-opacity:1"
   id="path14"
   d="m 61.874,50.873 v 0.85 h -0.736 v 4.132 c 0,1.981 -1.053,2.831 -2.887,2.831 -1.846,0 -2.887,-0.849 -2.887,-2.831 v -4.132 h -0.736 v -0.85 h 2.547 v 0.85 h -0.736 v 4.132 c 0,0.849 0.17,1.981 1.834,1.981 1.585,0 1.789,-1.132 1.789,-1.981 v -4.132 h -0.736 v -0.85 z" />
		<path
   inkscape:connector-curvature="0"
   style="fill:#5a5b5e;fill-opacity:1"
   id="path16"
   d="m 69.69,50.873 v 0.85 h -0.736 v 6.85 h -1.109 l -3.77,-5.74 h -0.023 v 4.891 h 0.77 v 0.849 h -2.491 v -0.849 h 0.736 v -6 h -0.736 v -0.85 h 1.777 l 3.827,5.888 h 0.022 v -5.038 h -0.759 v -0.85 h 2.492 z" />
		<path
   inkscape:connector-curvature="0"
   style="fill:#5a5b5e;fill-opacity:1"
   id="path18"
   d="m 70.883,57.723 v -6 h -0.736 v -0.85 h 2.547 v 0.85 h -0.736 v 6 h 0.736 v 0.849 h -2.547 v -0.849 z" />
		<path
   inkscape:connector-curvature="0"
   style="fill:#5a5b5e;fill-opacity:1"
   id="path20"
   d="m 80.509,50.873 v 0.85 h -0.6 l -2.367,6.906 h -1.381 l -2.446,-6.906 h -0.566 v -0.85 h 2.774 v 0.85 h -1.019 l 2.004,5.797 h 0.011 l 1.891,-5.797 h -1.019 v -0.85 z" />
		<path
   inkscape:connector-curvature="0"
   style="fill:#5a5b5e;fill-opacity:1"
   id="path22"
   d="m 86.683,50.873 v 1.642 h -0.849 v -0.792 h -3.057 v 2.434 h 3.34 v 0.849 h -3.34 v 2.717 h 3.057 V 56.93 h 0.849 v 1.642 h -5.717 v -0.849 h 0.736 v -6 h -0.736 v -0.85 z" />
		<path
   inkscape:connector-curvature="0"
   style="fill:#5a5b5e;fill-opacity:1"
   id="path24"
   d="m 91.329,50.873 c 1.529,0 2.378,0.94 2.378,2.299 0,1.087 -0.611,1.936 -1.653,2.117 l 1.721,2.434 h 0.555 v 0.849 h -2.661 v -0.849 h 0.747 l -1.54,-2.265 h -1.642 v 2.265 h 0.736 v 0.849 h -2.547 v -0.849 h 0.736 v -6 h -0.736 v -0.85 z m -2.095,3.736 h 1.925 c 0.849,0 1.438,-0.509 1.438,-1.438 0,-0.883 -0.532,-1.449 -1.381,-1.449 h -1.981 v 2.887 z" />
		<path
   inkscape:connector-curvature="0"
   style="fill:#5a5b5e;fill-opacity:1"
   id="path26"
   d="m 95.918,56.647 v 0.883 c 0.838,0.192 1.404,0.249 1.925,0.249 1.189,0 1.642,-0.623 1.642,-1.246 0,-0.928 -1.099,-1.188 -1.925,-1.415 -1.257,-0.329 -2.435,-1.019 -2.435,-2.321 0,-1.46 1.189,-2.038 2.661,-2.038 0.85,0 1.642,0.113 2.604,0.396 v 1.642 H 99.54 V 51.88 c -0.792,-0.17 -1.256,-0.215 -1.755,-0.215 -1.132,0 -1.528,0.509 -1.528,1.109 0,0.872 1.121,1.234 1.981,1.438 1.246,0.283 2.377,0.883 2.377,2.208 0,1.529 -1.188,2.265 -2.774,2.265 -0.849,0 -1.812,-0.113 -2.774,-0.396 v -1.642 z" />
		<path
   inkscape:connector-curvature="0"
   style="fill:#5a5b5e;fill-opacity:1"
   id="path28"
   d="m 102.092,57.723 v -6 h -0.736 v -0.85 h 2.547 v 0.85 h -0.736 v 6 h 0.736 v 0.849 h -2.547 v -0.849 z" />
		<path
   inkscape:connector-curvature="0"
   style="fill:#5a5b5e;fill-opacity:1"
   id="path30"
   d="m 107.834,50.873 c 2.525,0 3.261,1.642 3.261,3.793 0,2.186 -0.736,3.906 -3.261,3.906 h -3.476 v -0.849 h 0.736 v -6 h -0.736 v -0.85 z m 0,6.85 c 1.732,0 2.129,-1.416 2.129,-3.057 0,-1.641 -0.396,-2.943 -2.129,-2.943 h -1.664 v 6 z" />
		<path
   inkscape:connector-curvature="0"
   style="fill:#5a5b5e;fill-opacity:1"
   id="path32"
   d="m 115.752,50.873 2.31,6.85 h 0.623 v 0.849 h -2.661 v -0.849 h 0.872 l -0.498,-1.495 h -2.887 l -0.532,1.495 h 0.838 v 0.849 h -2.604 v -0.849 h 0.713 l 2.117,-6 h -0.827 v -0.85 z m -0.759,0.962 -1.256,3.601 h 2.468 l -1.2,-3.601 z" />
		<path
   inkscape:connector-curvature="0"
   style="fill:#5a5b5e;fill-opacity:1"
   id="path34"
   d="m 122.617,50.873 c 2.525,0 3.261,1.642 3.261,3.793 0,2.186 -0.736,3.906 -3.261,3.906 h -3.476 v -0.849 h 0.736 v -6 h -0.736 v -0.85 z m 0,6.85 c 1.732,0 2.129,-1.416 2.129,-3.057 0,-1.641 -0.396,-2.943 -2.129,-2.943 h -1.664 v 6 z" />
		<path
   inkscape:connector-curvature="0"
   style="fill:#5a5b5e;fill-opacity:1"
   id="path36"
   d="m 132.166,50.873 v 1.642 h -0.849 v -0.792 h -3.057 v 2.434 h 3.34 v 0.849 h -3.34 v 2.717 h 3.057 V 56.93 h 0.849 v 1.642 h -5.717 v -0.849 h 0.736 v -6 h -0.736 v -0.85 z" />
		<path
   inkscape:connector-curvature="0"
   style="fill:#5a5b5e;fill-opacity:1"
   id="path38"
   d="m 138.42,50.873 c 2.525,0 3.261,1.642 3.261,3.793 0,2.186 -0.736,3.906 -3.261,3.906 h -3.476 v -0.849 h 0.736 v -6 h -0.736 v -0.85 z m 0,6.85 c 1.732,0 2.129,-1.416 2.129,-3.057 0,-1.641 -0.396,-2.943 -2.129,-2.943 h -1.664 v 6 z" />
		<path
   inkscape:connector-curvature="0"
   style="fill:#5a5b5e;fill-opacity:1"
   id="path40"
   d="m 142.704,54.666 c 0,-2.151 0.646,-3.906 3.284,-3.906 2.626,0 3.283,1.755 3.283,3.906 0,2.186 -0.657,4.02 -3.283,4.02 -2.639,-10e-4 -3.284,-1.835 -3.284,-4.02 z m 1.132,0 c 0,1.642 0.306,3.17 2.151,3.17 1.834,0 2.151,-1.529 2.151,-3.17 0,-1.641 -0.317,-3.057 -2.151,-3.057 -1.845,0 -2.151,1.415 -2.151,3.057 z" />
		<path
   inkscape:connector-curvature="0"
   style="fill:#5a5b5e;fill-opacity:1"
   id="path42"
   d="m 156.59,50.873 2.31,6.85 h 0.623 v 0.849 h -2.661 v -0.849 h 0.872 l -0.498,-1.495 h -2.887 l -0.532,1.495 h 0.838 v 0.849 h -2.604 v -0.849 h 0.713 l 2.117,-6 h -0.827 v -0.85 z m -0.759,0.962 -1.256,3.601 h 2.468 l -1.2,-3.601 z" />
		<path
   inkscape:connector-curvature="0"
   style="fill:#5a5b5e;fill-opacity:1"
   id="path44"
   d="m 165.641,56.93 v 1.642 h -5.661 v -0.849 h 0.736 v -6 h -0.736 v -0.85 h 2.547 v 0.85 h -0.736 v 6 h 3 V 56.93 Z" />
		<path
   inkscape:connector-curvature="0"
   style="fill:#5a5b5e;fill-opacity:1"
   id="path46"
   d="m 169.516,57.779 c 0.566,0 1.087,-0.147 1.506,-0.374 v -1.834 h -1.472 v -0.849 h 2.547 v 3.352 c -0.781,0.328 -1.574,0.611 -2.661,0.611 -2.525,0 -3.284,-1.834 -3.284,-4.02 0,-2.151 0.646,-3.906 3.284,-3.906 0.872,0 1.698,0.113 2.661,0.396 v 1.585 h -0.849 v -0.917 c -0.77,-0.17 -1.223,-0.215 -1.732,-0.215 -1.777,0 -2.23,1.415 -2.23,3.057 -0.001,1.699 0.566,3.114 2.23,3.114 z" />
		<path
   inkscape:connector-curvature="0"
   style="fill:#5a5b5e;fill-opacity:1"
   id="path48"
   d="m 177.434,50.873 2.31,6.85 h 0.623 v 0.849 h -2.661 v -0.849 h 0.872 l -0.498,-1.495 h -2.887 l -0.532,1.495 h 0.838 v 0.849 h -2.604 v -0.849 h 0.713 l 2.117,-6 h -0.827 v -0.85 z m -0.759,0.962 -1.256,3.601 h 2.468 l -1.2,-3.601 z" />
		<path
   inkscape:connector-curvature="0"
   style="fill:#5a5b5e;fill-opacity:1"
   id="path50"
   d="m 184.729,50.873 c 1.529,0 2.378,0.94 2.378,2.299 0,1.087 -0.611,1.936 -1.653,2.117 l 1.721,2.434 h 0.555 v 0.849 h -2.661 v -0.849 h 0.747 l -1.54,-2.265 h -1.642 v 2.265 h 0.736 v 0.849 h -2.547 v -0.849 h 0.736 v -6 h -0.736 v -0.85 z m -2.094,3.736 h 1.925 c 0.849,0 1.438,-0.509 1.438,-1.438 0,-0.883 -0.532,-1.449 -1.381,-1.449 h -1.981 v 2.887 z" />
		<path
   inkscape:connector-curvature="0"
   style="fill:#5a5b5e;fill-opacity:1"
   id="path52"
   d="m 194.753,50.873 v 0.85 h -0.6 l -2.367,6.906 h -1.381 l -2.446,-6.906 h -0.566 v -0.85 h 2.774 v 0.85 h -1.019 l 2.004,5.797 h 0.011 l 1.891,-5.797 h -1.019 v -0.85 z" />
		<path
   inkscape:connector-curvature="0"
   style="fill:#5a5b5e;fill-opacity:1"
   id="path54"
   d="m 200.927,50.873 v 1.642 h -0.849 v -0.792 h -3.057 v 2.434 h 3.34 v 0.849 h -3.34 v 2.717 h 3.057 V 56.93 h 0.849 v 1.642 h -5.717 v -0.849 h 0.736 v -6 h -0.736 v -0.85 z" />
	</g>
</svg>